<svg xmlns="http://www.w3.org/2000/svg" xml:space="preserve" width="2000" height="192" data-id="lg_7NSqYJXQZ5KaHrmtB1" data-version="1" viewBox="600 -20 1000 190"><g data-padding="20"><g transform="translate(10 3.404)scale(.96454)"><rect width="460.896" height="114.13" x="389.477" y="-363.454" fill="none" rx="0" ry="0" transform="translate(450.04 441.38)"/><path fill="#895cb2" d="M884.465 166.212h-.61l-17.87-34.64-4.65-10.5-2.12 10.5-6.87 34.64h-11.21l15.35-74.23h1.21l20.41 40.1 6.06 13.43 6.06-13.43 20-40.1h1.11l15.95 74.23h-11.11l-7.47-34.64-2.22-10.5-4.04 10.5Zm75.96 0h-11.31v-34.64l-25.75-39.59h13.53l17.88 29.29 17.87-29.29h13.44l-25.66 39.79Z"/><path fill="#895cb2" d="M1029.405 91.582h.61l20.3 48.18 17.78-47.77h12.02l-28.89 74.23h-1.41l-20.2-48.07-20.1 47.97h-1.42l-28.88-74.13h12.02l17.77 47.77Zm43.84 74.63 35.55-74.33h1.11l35.76 74.33h-13.03l-6.37-14.54h-34.03l-6.37 14.54Zm36.26-52.82h-.2l-4.45 10.1-8.08 17.98h25.05l-7.98-17.88Zm63.32 52.82h-11.21v-64.33h-18.98v-9.9h49.38v9.9h-19.19Zm59.39.71q-8.89 0-15.8-3.03-6.92-3.03-11.72-8.33t-7.27-12.12q-2.48-6.82-2.48-14.5 0-8.38 2.78-15.35t7.83-12.07 12.02-7.93q6.97-2.82 15.35-2.82 5.45 0 9.7 1.11 4.24 1.11 6.96 2.47 2.73 1.37 3.44 2.17l-4.95 10.1q-2.73-2.42-6.72-3.94-3.99-1.51-9.34-1.51-6.97 0-12.57 3.43-5.61 3.44-8.89 9.7t-3.28 14.85q0 7.57 2.82 13.78 2.83 6.21 8.34 9.95 5.5 3.74 13.38 3.74 4.34 0 8.53-1.16t8.64-3.89l3.33 9.59q-1.31 1.22-4.44 2.58t-7.22 2.27-8.44.91m38.59-.71h-11.32v-74.23h11.32v30.3h26.15v-30.3h11.32v74.23h-11.32v-34.44h-26.15Z"/><g fill="#895cb2" stroke="#895cb2" stroke-width="5" transform="translate(156.136 398.148)scale(1.84)"><path d="M319.774-166.515h34.284" vector-effect="non-scaling-stroke"/>undefined
        undefined</g><g fill="#895cb2" stroke="#895cb2" stroke-width="5" transform="translate(206.257 338.808)scale(1.84)"><path d="M336.916-148.865v-35.3" vector-effect="non-scaling-stroke"/>undefined
        undefined</g><g fill="#895cb2" stroke="#895cb2" stroke-width="5" transform="translate(167.268 357.834)scale(1.84)"><path d="m349.236-154.195-24.64-24.64" vector-effect="non-scaling-stroke"/>undefined
        undefined</g><g fill="#895cb2" stroke="#895cb2" stroke-width="5" transform="translate(172.162 435.059)scale(1.84)"><path d="m349.236-178.835-24.64 24.64" vector-effect="non-scaling-stroke"/>undefined
        undefined</g><g fill="#895cb2" stroke="#895cb2" stroke-width="5" transform="translate(245.044 355.755)scale(1.84)"><path d="m349.559-179.158-25.286 25.286" vector-effect="non-scaling-stroke"/>undefined
        undefined</g></g><path fill="transparent" stroke="transparent" d="M718 0h564v192H718z"/></g></svg>